<?xml version="1.0" encoding="UTF-8" standalone="no"?>
<!DOCTYPE svg PUBLIC "-//W3C//DTD SVG 1.1//EN"
 "http://www.w3.org/Graphics/SVG/1.1/DTD/svg11.dtd">
<!-- Generated by graphviz version 2.38.0 (20140413.2041)
 -->
<!-- Title: %3 Pages: 1 -->
<svg width="663pt" height="108pt"
 viewBox="0.00 0.00 663.00 108.00" xmlns="http://www.w3.org/2000/svg" xmlns:xlink="http://www.w3.org/1999/xlink">
<g id="graph0" class="graph" transform="scale(1 1) rotate(0) translate(4 104)">
<title>%3</title>
<!-- mpileaks@2.3\n%gcc@4.7.3\n=linux&#45;ppc64 -->
<g id="node1" class="node"><title>mpileaks@2.3\n%gcc@4.7.3\n=linux&#45;ppc64</title>
<polygon fill="none" stroke="black" points="89,-75 0,-75 0,-34 89,-34 89,-75"/>
<text text-anchor="middle" x="44.5" y="-63" font-family="monaco" font-size="10.00">mpileaks@2.3</text>
<text text-anchor="middle" x="44.5" y="-52" font-family="monaco" font-size="10.00">%gcc@4.7.3</text>
<text text-anchor="middle" x="44.5" y="-41" font-family="monaco" font-size="10.00">=linux&#45;ppc64</text>
</g>
<!-- mpich@3.0.4\n%gcc@4.7.3\n=linux&#45;ppc64 -->
<g id="node2" class="node"><title>mpich@3.0.4\n%gcc@4.7.3\n=linux&#45;ppc64</title>
<polygon fill="none" stroke="black" points="366,-100 277,-100 277,-59 366,-59 366,-100"/>
<text text-anchor="middle" x="321.5" y="-88" font-family="monaco" font-size="10.00">mpich@3.0.4</text>
<text text-anchor="middle" x="321.5" y="-77" font-family="monaco" font-size="10.00">%gcc@4.7.3</text>
<text text-anchor="middle" x="321.5" y="-66" font-family="monaco" font-size="10.00">=linux&#45;ppc64</text>
</g>
<!-- mpileaks@2.3\n%gcc@4.7.3\n=linux&#45;ppc64&#45;&gt;mpich@3.0.4\n%gcc@4.7.3\n=linux&#45;ppc64 -->
<g id="edge1" class="edge"><title>mpileaks@2.3\n%gcc@4.7.3\n=linux&#45;ppc64&#45;&gt;mpich@3.0.4\n%gcc@4.7.3\n=linux&#45;ppc64</title>
<path fill="none" stroke="black" d="M89.0746,-58.4613C137.207,-62.837 214.754,-69.8868 266.653,-74.6048"/>
<polygon fill="black" stroke="black" points="266.399,-78.0961 276.675,-75.5159 267.033,-71.1248 266.399,-78.0961"/>
</g>
<!-- callpath@1.0\n%gcc@4.7.3+debug\n=linux&#45;ppc64 -->
<g id="node3" class="node"><title>callpath@1.0\n%gcc@4.7.3+debug\n=linux&#45;ppc64</title>
<polygon fill="none" stroke="black" points="238,-51 125,-51 125,-10 238,-10 238,-51"/>
<text text-anchor="middle" x="181.5" y="-39" font-family="monaco" font-size="10.00">callpath@1.0</text>
<text text-anchor="middle" x="181.5" y="-28" font-family="monaco" font-size="10.00">%gcc@4.7.3+debug</text>
<text text-anchor="middle" x="181.5" y="-17" font-family="monaco" font-size="10.00">=linux&#45;ppc64</text>
</g>
<!-- mpileaks@2.3\n%gcc@4.7.3\n=linux&#45;ppc64&#45;&gt;callpath@1.0\n%gcc@4.7.3+debug\n=linux&#45;ppc64 -->
<g id="edge2" class="edge"><title>mpileaks@2.3\n%gcc@4.7.3\n=linux&#45;ppc64&#45;&gt;callpath@1.0\n%gcc@4.7.3+debug\n=linux&#45;ppc64</title>
<path fill="none" stroke="black" d="M89.3306,-46.7079C97.4098,-45.2716 106.007,-43.7432 114.57,-42.2208"/>
<polygon fill="black" stroke="black" points="115.342,-45.6387 124.575,-40.4423 114.116,-38.7467 115.342,-45.6387"/>
</g>
<!-- callpath@1.0\n%gcc@4.7.3+debug\n=linux&#45;ppc64&#45;&gt;mpich@3.0.4\n%gcc@4.7.3\n=linux&#45;ppc64 -->
<g id="edge3" class="edge"><title>callpath@1.0\n%gcc@4.7.3+debug\n=linux&#45;ppc64&#45;&gt;mpich@3.0.4\n%gcc@4.7.3\n=linux&#45;ppc64</title>
<path fill="none" stroke="black" d="M238.232,-50.2889C247.781,-53.6796 257.683,-57.1954 267.168,-60.5632"/>
<polygon fill="black" stroke="black" points="266.274,-63.9598 276.869,-64.0077 268.616,-57.3633 266.274,-63.9598"/>
</g>
<!-- dyninst@8.1.2\n%gcc@4.7.3\n=linux&#45;ppc64 -->
<g id="node4" class="node"><title>dyninst@8.1.2\n%gcc@4.7.3\n=linux&#45;ppc64</title>
<polygon fill="none" stroke="black" points="369,-41 274,-41 274,-0 369,-0 369,-41"/>
<text text-anchor="middle" x="321.5" y="-29" font-family="monaco" font-size="10.00">dyninst@8.1.2</text>
<text text-anchor="middle" x="321.5" y="-18" font-family="monaco" font-size="10.00">%gcc@4.7.3</text>
<text text-anchor="middle" x="321.5" y="-7" font-family="monaco" font-size="10.00">=linux&#45;ppc64</text>
</g>
<!-- callpath@1.0\n%gcc@4.7.3+debug\n=linux&#45;ppc64&#45;&gt;dyninst@8.1.2\n%gcc@4.7.3\n=linux&#45;ppc64 -->
<g id="edge4" class="edge"><title>callpath@1.0\n%gcc@4.7.3+debug\n=linux&#45;ppc64&#45;&gt;dyninst@8.1.2\n%gcc@4.7.3\n=linux&#45;ppc64</title>
<path fill="none" stroke="black" d="M238.232,-26.4614C246.635,-25.8526 255.31,-25.2239 263.734,-24.6134"/>
<polygon fill="black" stroke="black" points="264.129,-28.0941 273.85,-23.8804 263.623,-21.1124 264.129,-28.0941"/>
</g>
<!-- libdwarf@20130729\n%gcc@4.7.3\n=linux&#45;ppc64 -->
<g id="node5" class="node"><title>libdwarf@20130729\n%gcc@4.7.3\n=linux&#45;ppc64</title>
<polygon fill="none" stroke="black" points="524,-66 405,-66 405,-25 524,-25 524,-66"/>
<text text-anchor="middle" x="464.5" y="-54" font-family="monaco" font-size="10.00">libdwarf@20130729</text>
<text text-anchor="middle" x="464.5" y="-43" font-family="monaco" font-size="10.00">%gcc@4.7.3</text>
<text text-anchor="middle" x="464.5" y="-32" font-family="monaco" font-size="10.00">=linux&#45;ppc64</text>
</g>
<!-- dyninst@8.1.2\n%gcc@4.7.3\n=linux&#45;ppc64&#45;&gt;libdwarf@20130729\n%gcc@4.7.3\n=linux&#45;ppc64 -->
<g id="edge5" class="edge"><title>dyninst@8.1.2\n%gcc@4.7.3\n=linux&#45;ppc64&#45;&gt;libdwarf@20130729\n%gcc@4.7.3\n=linux&#45;ppc64</title>
<path fill="none" stroke="black" d="M369.059,-28.7552C377.394,-30.2329 386.234,-31.8004 395.033,-33.3604"/>
<polygon fill="black" stroke="black" points="394.462,-36.8137 404.919,-35.1134 395.684,-29.9212 394.462,-36.8137"/>
</g>
<!-- libelf@0.8.11\n%gcc@4.7.3\n=linux&#45;ppc64 -->
<g id="node6" class="node"><title>libelf@0.8.11\n%gcc@4.7.3\n=linux&#45;ppc64</title>
<polygon fill="none" stroke="black" points="655,-41 560,-41 560,-0 655,-0 655,-41"/>
<text text-anchor="middle" x="607.5" y="-29" font-family="monaco" font-size="10.00">libelf@0.8.11</text>
<text text-anchor="middle" x="607.5" y="-18" font-family="monaco" font-size="10.00">%gcc@4.7.3</text>
<text text-anchor="middle" x="607.5" y="-7" font-family="monaco" font-size="10.00">=linux&#45;ppc64</text>
</g>
<!-- dyninst@8.1.2\n%gcc@4.7.3\n=linux&#45;ppc64&#45;&gt;libelf@0.8.11\n%gcc@4.7.3\n=linux&#45;ppc64 -->
<g id="edge7" class="edge"><title>dyninst@8.1.2\n%gcc@4.7.3\n=linux&#45;ppc64&#45;&gt;libelf@0.8.11\n%gcc@4.7.3\n=linux&#45;ppc64</title>
<path fill="none" stroke="black" d="M369.162,-17.178C380.857,-16.4814 393.382,-15.8517 405,-15.5 457.865,-13.8995 471.135,-13.8995 524,-15.5 532.35,-15.7528 541.169,-16.1492 549.812,-16.6108"/>
<polygon fill="black" stroke="black" points="549.656,-20.1075 559.838,-17.178 550.052,-13.1187 549.656,-20.1075"/>
</g>
<!-- libdwarf@20130729\n%gcc@4.7.3\n=linux&#45;ppc64&#45;&gt;libelf@0.8.11\n%gcc@4.7.3\n=linux&#45;ppc64 -->
<g id="edge6" class="edge"><title>libdwarf@20130729\n%gcc@4.7.3\n=linux&#45;ppc64&#45;&gt;libelf@0.8.11\n%gcc@4.7.3\n=linux&#45;ppc64</title>
<path fill="none" stroke="black" d="M524.072,-35.1149C532.664,-33.5914 541.5,-32.0248 550.049,-30.509"/>
<polygon fill="black" stroke="black" points="550.685,-33.9509 559.921,-28.7587 549.463,-27.0584 550.685,-33.9509"/>
</g>
</g>
</svg>
