<?xml version="1.0" encoding="UTF-8" standalone="no"?>
<!DOCTYPE svg PUBLIC "-//W3C//DTD SVG 1.1//EN"
 "http://www.w3.org/Graphics/SVG/1.1/DTD/svg11.dtd">
<!-- Generated by graphviz version 2.38.0 (20140413.2041)
 -->
<!-- Title: %3 Pages: 1 -->
<svg width="561pt" height="98pt"
 viewBox="0.00 0.00 561.00 98.00" xmlns="http://www.w3.org/2000/svg" xmlns:xlink="http://www.w3.org/1999/xlink">
<g id="graph0" class="graph" transform="scale(1 1) rotate(0) translate(4 94)">
<title>%3</title>
<!-- mpileaks -->
<g id="node1" class="node"><title>mpileaks</title>
<polygon fill="none" stroke="black" points="65,-67 0,-67 0,-31 65,-31 65,-67"/>
<text text-anchor="middle" x="32.5" y="-46.5" font-family="monaco" font-size="10.00">mpileaks</text>
</g>
<!-- mpi -->
<g id="node2" class="node"><title>mpi</title>
<polygon fill="none" stroke="black" points="318.5,-90 264.5,-90 264.5,-54 318.5,-54 318.5,-90"/>
<text text-anchor="middle" x="291.5" y="-69.5" font-family="monaco" font-size="10.00">mpi</text>
</g>
<!-- mpileaks&#45;&gt;mpi -->
<g id="edge1" class="edge"><title>mpileaks&#45;&gt;mpi</title>
<path fill="none" stroke="black" d="M65.0132,-51.8203C112.815,-56.0982 203.426,-64.2074 254.016,-68.7349"/>
<polygon fill="black" stroke="black" points="253.902,-72.2386 264.174,-69.644 254.526,-65.2665 253.902,-72.2386"/>
</g>
<!-- callpath@1.0+debug -->
<g id="node3" class="node"><title>callpath@1.0+debug</title>
<polygon fill="none" stroke="black" points="226,-44 101,-44 101,-8 226,-8 226,-44"/>
<text text-anchor="middle" x="163.5" y="-23.5" font-family="monaco" font-size="10.00">callpath@1.0+debug</text>
</g>
<!-- mpileaks&#45;&gt;callpath@1.0+debug -->
<g id="edge2" class="edge"><title>mpileaks&#45;&gt;callpath@1.0+debug</title>
<path fill="none" stroke="black" d="M65.057,-43.3736C72.9997,-41.9574 81.8534,-40.3788 90.8957,-38.7667"/>
<polygon fill="black" stroke="black" points="91.517,-42.2112 100.747,-37.0102 90.2883,-35.3198 91.517,-42.2112"/>
</g>
<!-- callpath@1.0+debug&#45;&gt;mpi -->
<g id="edge3" class="edge"><title>callpath@1.0+debug&#45;&gt;mpi</title>
<path fill="none" stroke="black" d="M213.937,-44.0484C227.537,-49.0136 242.023,-54.302 254.693,-58.9276"/>
<polygon fill="black" stroke="black" points="253.819,-62.3345 264.413,-62.4762 256.22,-55.759 253.819,-62.3345"/>
</g>
<!-- dyninst -->
<g id="node4" class="node"><title>dyninst</title>
<polygon fill="none" stroke="black" points="321,-36 262,-36 262,-0 321,-0 321,-36"/>
<text text-anchor="middle" x="291.5" y="-15.5" font-family="monaco" font-size="10.00">dyninst</text>
</g>
<!-- callpath@1.0+debug&#45;&gt;dyninst -->
<g id="edge4" class="edge"><title>callpath@1.0+debug&#45;&gt;dyninst</title>
<path fill="none" stroke="black" d="M226.024,-22.0937C234.711,-21.5422 243.435,-20.9882 251.536,-20.4739"/>
<polygon fill="black" stroke="black" points="252.013,-23.9508 261.771,-19.8241 251.569,-16.9649 252.013,-23.9508"/>
</g>
<!-- libdwarf -->
<g id="node5" class="node"><title>libdwarf</title>
<polygon fill="none" stroke="black" points="422,-59 357,-59 357,-23 422,-23 422,-59"/>
<text text-anchor="middle" x="389.5" y="-38.5" font-family="monaco" font-size="10.00">libdwarf</text>
</g>
<!-- dyninst&#45;&gt;libdwarf -->
<g id="edge5" class="edge"><title>dyninst&#45;&gt;libdwarf</title>
<path fill="none" stroke="black" d="M321.043,-24.8385C329.235,-26.8012 338.337,-28.9819 347.136,-31.0899"/>
<polygon fill="black" stroke="black" points="346.337,-34.4973 356.877,-33.4236 347.968,-27.69 346.337,-34.4973"/>
</g>
<!-- libelf@0.8.11 -->
<g id="node6" class="node"><title>libelf@0.8.11</title>
<polygon fill="none" stroke="black" points="553,-36 458,-36 458,-0 553,-0 553,-36"/>
<text text-anchor="middle" x="505.5" y="-15.5" font-family="monaco" font-size="10.00">libelf@0.8.11</text>
</g>
<!-- dyninst&#45;&gt;libelf@0.8.11 -->
<g id="edge7" class="edge"><title>dyninst&#45;&gt;libelf@0.8.11</title>
<path fill="none" stroke="black" d="M321.059,-15.8475C332.259,-15.1032 345.225,-14.3648 357,-14 385.875,-13.1055 393.12,-13.3003 422,-14 430.346,-14.2022 439.163,-14.5193 447.804,-14.8886"/>
<polygon fill="black" stroke="black" points="447.682,-18.3866 457.83,-15.3423 447.998,-11.3937 447.682,-18.3866"/>
</g>
<!-- libdwarf&#45;&gt;libelf@0.8.11 -->
<g id="edge6" class="edge"><title>libdwarf&#45;&gt;libelf@0.8.11</title>
<path fill="none" stroke="black" d="M422.255,-34.5932C430.297,-32.9708 439.179,-31.1788 448.043,-29.3904"/>
<polygon fill="black" stroke="black" points="448.888,-32.7906 457.998,-27.3819 447.504,-25.9288 448.888,-32.7906"/>
</g>
</g>
</svg>
