<?xml version="1.0" encoding="UTF-8" standalone="no"?>
<!DOCTYPE svg PUBLIC "-//W3C//DTD SVG 1.1//EN"
 "http://www.w3.org/Graphics/SVG/1.1/DTD/svg11.dtd">
<!-- Generated by graphviz version 2.38.0 (20140413.2041)
 -->
<!-- Title: %3 Pages: 1 -->
<svg width="460pt" height="98pt"
 viewBox="0.00 0.00 460.00 98.00" xmlns="http://www.w3.org/2000/svg" xmlns:xlink="http://www.w3.org/1999/xlink">
<g id="graph0" class="graph" transform="scale(1 1) rotate(0) translate(4 94)">
<title>%3</title>
<!-- mpi -->
<g id="node1" class="node"><title>mpi</title>
<polygon fill="none" stroke="red" points="258.5,-90 204.5,-90 204.5,-54 258.5,-54 258.5,-90"/>
<text text-anchor="middle" x="231.5" y="-69.5" font-family="monaco" font-size="10.00">mpi</text>
</g>
<!-- mpileaks -->
<g id="node2" class="node"><title>mpileaks</title>
<polygon fill="none" stroke="black" points="65,-67 0,-67 0,-31 65,-31 65,-67"/>
<text text-anchor="middle" x="32.5" y="-46.5" font-family="monaco" font-size="10.00">mpileaks</text>
</g>
<!-- mpileaks&#45;&gt;mpi -->
<g id="edge1" class="edge"><title>mpileaks&#45;&gt;mpi</title>
<path fill="none" stroke="black" d="M65.1515,-52.6953C100.294,-56.7983 156.931,-63.4107 193.938,-67.7314"/>
<polygon fill="black" stroke="black" points="193.946,-71.2559 204.284,-68.9393 194.758,-64.3032 193.946,-71.2559"/>
</g>
<!-- callpath -->
<g id="node3" class="node"><title>callpath</title>
<polygon fill="none" stroke="black" points="166,-44 101,-44 101,-8 166,-8 166,-44"/>
<text text-anchor="middle" x="133.5" y="-23.5" font-family="monaco" font-size="10.00">callpath</text>
</g>
<!-- mpileaks&#45;&gt;callpath -->
<g id="edge2" class="edge"><title>mpileaks&#45;&gt;callpath</title>
<path fill="none" stroke="black" d="M65.0964,-41.6594C73.3123,-39.7507 82.2886,-37.6653 90.9335,-35.6569"/>
<polygon fill="black" stroke="black" points="91.9157,-39.022 100.864,-33.3497 90.3315,-32.2036 91.9157,-39.022"/>
</g>
<!-- callpath&#45;&gt;mpi -->
<g id="edge3" class="edge"><title>callpath&#45;&gt;mpi</title>
<path fill="none" stroke="black" d="M166.2,-41.1896C175.457,-45.6253 185.632,-50.5009 195.103,-55.0388"/>
<polygon fill="black" stroke="black" points="193.748,-58.2706 204.278,-59.4355 196.773,-51.9579 193.748,-58.2706"/>
</g>
<!-- dyninst -->
<g id="node4" class="node"><title>dyninst</title>
<polygon fill="none" stroke="black" points="261,-36 202,-36 202,-0 261,-0 261,-36"/>
<text text-anchor="middle" x="231.5" y="-15.5" font-family="monaco" font-size="10.00">dyninst</text>
</g>
<!-- callpath&#45;&gt;dyninst -->
<g id="edge4" class="edge"><title>callpath&#45;&gt;dyninst</title>
<path fill="none" stroke="black" d="M166.2,-23.3583C174.354,-22.6788 183.22,-21.94 191.689,-21.2342"/>
<polygon fill="black" stroke="black" points="192.074,-24.7144 201.749,-20.3959 191.493,-17.7386 192.074,-24.7144"/>
</g>
<!-- libdwarf -->
<g id="node5" class="node"><title>libdwarf</title>
<polygon fill="none" stroke="black" points="362,-59 297,-59 297,-23 362,-23 362,-59"/>
<text text-anchor="middle" x="329.5" y="-38.5" font-family="monaco" font-size="10.00">libdwarf</text>
</g>
<!-- dyninst&#45;&gt;libdwarf -->
<g id="edge5" class="edge"><title>dyninst&#45;&gt;libdwarf</title>
<path fill="none" stroke="black" d="M261.043,-24.8385C269.235,-26.8012 278.337,-28.9819 287.136,-31.0899"/>
<polygon fill="black" stroke="black" points="286.337,-34.4973 296.877,-33.4236 287.968,-27.69 286.337,-34.4973"/>
</g>
<!-- libelf -->
<g id="node6" class="node"><title>libelf</title>
<polygon fill="none" stroke="black" points="452,-36 398,-36 398,-0 452,-0 452,-36"/>
<text text-anchor="middle" x="425" y="-15.5" font-family="monaco" font-size="10.00">libelf</text>
</g>
<!-- dyninst&#45;&gt;libelf -->
<g id="edge7" class="edge"><title>dyninst&#45;&gt;libelf</title>
<path fill="none" stroke="black" d="M261.059,-15.8475C272.259,-15.1032 285.225,-14.3648 297,-14 325.875,-13.1055 333.126,-13.0696 362,-14 370.354,-14.2692 379.332,-14.742 387.79,-15.2703"/>
<polygon fill="black" stroke="black" points="387.562,-18.7629 397.772,-15.9325 388.026,-11.7782 387.562,-18.7629"/>
</g>
<!-- libdwarf&#45;&gt;libelf -->
<g id="edge6" class="edge"><title>libdwarf&#45;&gt;libelf</title>
<path fill="none" stroke="black" d="M362.155,-33.2132C370.532,-31.1525 379.634,-28.9136 388.213,-26.8031"/>
<polygon fill="black" stroke="black" points="389.096,-30.1904 397.971,-24.403 387.424,-23.393 389.096,-30.1904"/>
</g>
</g>
</svg>
